<svg xmlns="http://www.w3.org/2000/svg" fill="none" viewBox="0 0 24 24" stroke="#F9FAFB">
  <g>
    <path stroke-linecap="round" stroke-linejoin="round" stroke-width="2" d="M2 8c-1.1 0-2 .9-2 2v4c0 1.1.9 2 2 2s2-.9 2-2v-4c0-1.1-.9-2-2-2zM9 4c-1.1 0-2 .9-2 2v12c0 1.1.9 2 2 2s2-.9 2-2V6c0-1.1-.9-2-2-2zM16 0c-1.1 0-2 .9-2 2v20c0 1.1.9 2 2 2s2-.9 2-2V2c0-1.1-.9-2-2-2zM23 4c-1.1 0-2 .9-2 2v12c0 1.1.9 2 2 2s2-.9 2-2V6c0-1.1-.9-2-2-2zM30 8c-1.1 0-2 .9-2 2v4c0 1.1.9 2 2 2s2-.9 2-2v-4c0-1.1-.9-2-2-2z"></path>
  </g>
</svg>